PathFileType	4	(X/Y/Z)	Patient4_TMGait_0pt6_01_right_40.trc.trc
DataRate	CameraRate	NumFrames	NumMarkers	Units	OrigDataRate	OrigDataStartFrame	OrigNumFrames
83.333333333333	83.333333333333	4	33	mm	83.333333333333	106	       141
Frame#	Time	Sacral			L.Shoulder			Chest			R.Shoulder			Neck			R.ASIS			L.ASIS			R.Thigh.Superior			R.Thigh.Lateral			R.Thigh.Inferior			R.Patella			L.Thigh.Superior			L.Thigh.Lateral			L.Thigh.Inferior			L.Patella			L.Shank.Superior			L.Shank.Lateral			L.Shank.Inferior			R.Shank.Superior			R.Shank.Lateral			R.Shank.Inferior			R.Heel			R.Midfoot.Superior			R.Midfoot.Lateral			R.Toe			L.Heel			L.Midfoot.Lateral			L.Midfoot.Superior			L.Toe			L.Elbow			L.Wrist			R.Elbow			R.Wrist			
		X1	Y1	Z1	X2	Y2	Z2	X3	Y3	Z3	X4	Y4	Z4	X5	Y5	Z5	X6	Y6	Z6	X7	Y7	Z7	X8	Y8	Z8	X9	Y9	Z9	X10	Y10	Z10	X11	Y11	Z11	X12	Y12	Z12	X13	Y13	Z13	X14	Y14	Z14	X15	Y15	Z15	X16	Y16	Z16	X17	Y17	Z17	X18	Y18	Z18	X19	Y19	Z19	X20	Y20	Z20	X21	Y21	Z21	X22	Y22	Z22	X23	Y23	Z23	X24	Y24	Z24	X25	Y25	Z25	X26	Y26	Z26	X27	Y27	Z27	X28	Y28	Z28	X29	Y29	Z29	X30	Y30	Z30	X31	Y31	Z31	X32	Y32	Z32	X33	Y33	Z33	

106	49.360000000000	774.517647245417	1016.213479484487	436.370465653833	959.267676682283	1447.547610111395	264.220044944588	1055.430828273287	1374.134096887651	426.663948616179	965.270025845212	1440.309631492041	599.162141767503	934.442146038778	1503.769409004480	418.856806443137	999.725400459682	956.632157074492	557.538400758360	994.554905238039	969.696902279544	282.721743874936	1094.857612074831	800.642138652476	519.673324193746	1073.052612252839	676.716789929045	593.332778476909	1160.636864946643	645.633415201132	507.938154122379	1192.762451676187	534.944840683571	528.061115781817	1025.123214761438	747.371258001626	319.004024610456	925.457779315255	638.644748442025	260.472075299842	1000.433721184312	555.982481590647	327.190401152480	994.221767485422	487.470400758128	338.524432488037	967.126282507616	417.388316177999	331.383775991943	873.838732931685	303.478977344685	287.998982334425	926.861344889304	193.455280208499	359.381924836218	1125.438479621257	452.458872107904	538.109349063338	1013.449810076263	397.744370813351	603.510144345041	1009.902486706642	288.508239810104	553.744695043860	817.524374673452	202.855739911616	532.897400418907	992.245557056395	163.339639677078	565.780256659792	885.104214240413	149.264606083407	603.475228778304	1070.743653108272	59.626045027789	589.421443313403	799.550260006036	38.402185031065	414.501498120618	864.855248519116	35.855807183566	326.303593330605	950.991283467484	96.648691634845	344.900281758944	1075.478537711249	43.651742457707	302.535495859575	1010.904974721605	1109.991043734472	115.802138161258	1227.761718784038	963.628620691714	120.994585747186	863.823470271469	1100.910199559150	693.591114242341	855.165353193269	841.583448000014	715.289329276231	
107	49.372000000000	773.766139832232	1016.285250150986	435.850755811662	960.996560838746	1447.897607967499	264.970370531709	1055.802879756555	1373.699089416274	427.807842877040	964.764319538862	1439.899657315426	599.803285551399	935.161435064164	1503.687500423724	419.680989861149	998.608481839330	956.977489481164	557.745980284184	994.099197792406	969.497033029723	282.897309388056	1094.546298426572	802.212833612929	520.106248308731	1073.396745979546	678.136100498519	594.143895333826	1160.871083019922	647.406607555958	508.634909315184	1194.561335205967	538.734334088205	528.991873831494	1022.608025263917	746.390699222965	319.850758524884	921.891237598678	638.627317455715	260.382361531378	995.304267107065	555.213001957900	327.586216789679	988.330460846507	486.908450475744	338.785528364554	961.116205566375	416.989184060279	331.531961977657	867.483956235119	303.409344602522	288.060273911455	919.962199378316	193.222564435327	359.543385486649	1131.584110546529	454.263060191053	539.235418421585	1023.772982738042	392.817775032610	605.211812988728	1026.719031903708	283.658041360174	555.242287624827	840.136567066593	186.540615554166	534.926861370873	1016.788008986109	157.525166355275	567.392134267222	910.928608095572	137.195205543937	605.511393495584	1101.370836999450	58.685706936234	591.085174954422	792.284047259908	38.338134103620	414.497049426136	857.579904703558	35.808703487873	326.322202948442	943.715109154960	96.627937102713	344.968778278464	1068.207161936245	43.696241929015	302.564606868769	1015.620257231984	1111.864295341203	115.333542315022	1239.703999279637	977.223219107616	121.863649074240	854.528695872396	1104.031923555973	693.703533218245	836.486632780832	845.517576135627	715.961649848331	
108	49.384000000000	773.110418409867	1016.262568547120	435.395061615706	962.762825816339	1448.073957203092	265.798614801508	1056.246057401836	1373.124687167002	429.013186541762	964.376245721892	1439.431281097787	600.498990588439	935.952681254766	1503.486361398336	420.546354221778	997.555334382470	957.095015745525	558.021323024414	993.667319176152	969.156872590455	283.160471411465	1093.813261599394	802.961890342977	520.727982854450	1072.710762746343	678.806453278577	595.103043686701	1160.061251827084	648.171538411750	509.602282512668	1195.087697096528	541.755559435048	530.142605887074	1020.236485607591	745.378389925708	320.718368379640	918.452776826180	638.568354656334	260.298680638527	990.296782296484	554.420050273688	327.967633651107	982.574112186335	486.325289280034	339.017990377224	955.216247145887	416.547450167375	331.674208027964	861.226703262745	303.320993585474	288.097774174006	913.108382832228	192.962480956526	359.698380618709	1136.729678441998	455.561120785413	540.516210834213	1033.752030352693	387.324916756982	607.072397855012	1043.500820278926	278.694411226404	556.770260042294	863.790802406814	169.907085872185	536.889966440894	1041.748325493551	152.012650959433	568.925224093088	937.665677538349	125.168871346265	607.430488755884	1132.386244224687	58.681499945325	592.552647823047	785.028716687779	38.284802029256	414.484485880419	850.304988070131	35.764709356493	326.336557045668	936.442673166724	96.598168277858	345.041406464009	1060.933023628489	43.728790681445	302.596783647080	1020.152294767894	1113.498558556674	115.107591212115	1250.645173260187	990.731087556986	123.061409441432	845.578879083021	1107.327522774324	694.051488152690	819.434362307861	849.811804431258	716.597305345574	
109	49.396000000000	772.574672348121	1016.151626137924	435.003622468825	964.540016067420	1448.079176082697	266.692339493020	1056.750117937650	1372.432377392895	430.268231157275	964.100970614156	1438.921546462529	601.239980476898	936.800852485750	1503.174918028309	421.438570349422	996.583605865022	956.997519064480	558.393929318177	993.308662165725	968.689772872971	283.527005521218	1092.645965533732	802.870081784667	521.538903345029	1071.006865156935	678.717337608861	596.203895169739	1158.216350184454	647.942052682213	510.814063962562	1194.383816442503	543.995187641008	531.452333291612	1018.016097718120	744.327548823123	321.600942267739	915.160029649025	638.461938598550	260.242186914177	985.442471453917	553.596974281305	328.350262996926	976.975990503396	485.711889617100	339.248617815241	949.446372781238	416.062257192194	331.829322713326	855.085341691139	303.222024310557	288.118884597726	906.312768833312	192.680321173134	359.851210193962	1140.844610811056	456.377023286248	541.900499596607	1043.311568806720	381.442861260658	609.033844301402	1060.025002326461	273.822657658054	558.263016372553	888.201242661821	153.386836542229	538.723943218205	1066.760328216480	147.072134243509	570.296020764188	964.971708483504	113.557504178495	609.152081175550	1163.303299006323	59.846917817370	593.731368851877	777.781547614378	38.249953653760	414.465696142073	843.030771317199	35.730026900019	326.346490045614	929.176031937885	96.560847154535	345.118305324630	1053.654492375878	43.744817184421	302.632157431098	1024.528136843899	1114.890395325137	115.112364887281	1260.585131520913	1004.003724904169	124.570195310905	837.124737528337	1110.706636077716	694.574236109669	804.006280579042	854.252565738122	717.205206112248	
